<?xml version="1.0" encoding="UTF-8"?>
<svg xmlns="http://www.w3.org/2000/svg" version="1.1" xmlns:xlink="http://www.w3.org/1999/xlink" viewBox="0 0 1000 1000">
  <defs>
    <style>
      .cls-1 {
        fill: none;
      }

      .cls-2 {
        fill: url(#linear-gradient);
      }

      .cls-3 {
        clip-path: url(#clippath);
      }

      .cls-4 {
        fill: #f7d4aa;
      }
    </style>
    <clipPath id="clippath">
      <path class="cls-1" d="M334.4,902.91c-1.62,2.93-3.25,5.84-4.88,8.76,13.44,6.82,26.89,13.65,40.32,20.48-5.71-8.47-12.79-19.99-19.84-34.08-5.2,1.62-10.4,3.23-15.6,4.84M609.21,942.03s.36-.04,1.06-.14c19.96-10.06,39.92-20.15,59.88-30.19-12.45-5.25-24.71-10.16-36.84-14.77-6.45,14.5-14.41,29.54-24.1,45.11M257.27,670.25c-18.62,5.54-37.76,9.35-58.43,13.06,1.63,35.64,7.57,74.38,21.39,111.48,9.19,11.68,18.37,23.21,27.67,34.63,4.04,4.96,17.79,5.44,25.73,3.26,16.61-4.57,33.18-9.24,49.74-13.95-9.17-51.78-4.4-114.78,36.97-180.87-34.26,11.14-68.56,22.1-103.08,32.38M479.56,599.07c-13.05,4.15-26.09,8.36-39.11,12.6,1.25,45.11,11.84,105.72,50.99,160.5,8.63-1.18,17.76-1.11,26.42.14,18.62-17.26,49.57-54.66,75.02-127.82,0,0,71.73,60.23,63.33,166.33,23.69,6.83,47.42,13.58,71.23,20.02,9.05,2.45,24.83-.13,30.04-6.49,9.2-11.21,18.24-22.56,27.28-34.12,9.52-29.62,14.91-64.96,13.89-107.07-103.36-19.61-198.07-48.21-289.65-87.96-2.05-.89-4.38-1.25-6.9-1.25-7.11,0-15.56,2.91-22.52,5.13M483.05,327.42c-23.05,10.42-45.66,21.88-68.36,33.08-6.39,7.92-13.46,15.42-21.29,22.41,0,0-.16-4.4-1.13-11.5-13.89,6.64-27.87,13.02-42.09,18.87-26.99,11.1-54.41,20.56-82.32,28.69-6.61,20.6-15.62,43.67-27.7,69.41-16.83,35.89-29.3,73.69-36.04,112.47,92.09-18.43,181.74-44.87,267.14-85.54,21.41-10.2,38.78-11.8,61.61-.94,80.92,38.47,165.68,64.63,252.81,82.19-8.53-30.12-20.92-59.22-35.85-86.96-12-22.32-22.87-53.42-20.6-90.85-15.66-4.64-31.22-9.66-46.64-15.05-17.39,15.33-36.26,39.82-52.14,78.93,0,0,6.66-39.24,1.87-98.05-40.43-16.65-79.98-36.08-118.63-58.52-3.11-1.8-7.34-2.57-11.86-2.57-6.5,0-13.58,1.58-18.79,3.93M269.16,268.47s15.19,17.31,14.92,61.56c26.86-9.31,53.38-19.79,79.12-31.3-15.04-18.25-37.55-32.21-71.19-32.22-7.11,0-14.7.62-22.85,1.96M456.33,48.26c6.35,28.94,21.98,114.31,7.03,197.78,6.4-3.96,12.69-7.97,18.85-12.05,13.34-8.82,22.94-12.7,38.16-2.12,30.43,21.18,62.11,39.57,94.83,55.56-21.4-77.64-65.56-166.58-154.16-243.38-1.57,1.41-3.15,2.81-4.72,4.21"/>
    </clipPath>
    <linearGradient id="linear-gradient" x1="-85.24" y1="863.65" x2="-75.05" y2="863.65" gradientTransform="translate(-59879.26 6141.06) rotate(90) scale(69.91 -69.91)" gradientUnits="userSpaceOnUse">
      <stop offset="0" stop-color="#fb8a24"/>
      <stop offset=".51" stop-color="#ff5b3b"/>
      <stop offset="1" stop-color="#d61439"/>
    </linearGradient>
  </defs>
  <!-- Generator: Adobe Illustrator 28.7.3, SVG Export Plug-In . SVG Version: 1.2.0 Build 164)  -->
  <g>
    <g id="Layer_1">
      <g>
        <path class="cls-4" d="M16.13,219.98C204.1,201.75,369.31,145.17,500.24,5.61c129.24,140.04,296.05,196.96,483.63,216.1-6.39,52.82-12.44,102.81-19.23,158.99-54.38-8.96-104.79-14.71-153.94-25.91-103.85-23.64-202.29-61.67-290.33-122.92-15.21-10.57-24.82-6.69-38.15,2.13-126.6,83.74-304.83,141.61-446.35,144.3-6.39-51.31-12.86-103.14-19.74-158.33M53.17,459.21c14.96,44.38,29.78,83.94,41.4,124.43,7.72,26.93,21.95,32.61,48.33,28.3,113.58-18.57,224.13-46.99,328.36-96.62,21.41-10.2,38.78-11.8,61.62-.95,105.92,50.36,218.43,79.63,334.24,96.11,9.88,1.41,27.82-3.62,30.54-10.32,18.26-44.98,33.42-91.23,49.73-137.52-7.68-2.48-10.31-3.85-13.05-4.13-149.36-15.13-290.25-56.74-420.64-132.46-7.58-4.39-21.82-2.63-30.66,1.37-44.64,20.18-87.62,44.24-132.86,62.86-93.13,38.31-191.36,57.08-297.02,68.93M858.7,693.4c-127.24-19.35-240.7-50.89-349.73-98.2-7.82-3.41-19.99.87-29.41,3.86-74.14,23.6-147.73,49-222.28,71.19-34.45,10.26-70.68,14.57-115.12,23.36,37.55,48.72,70.84,92.92,105.75,135.83,4.04,4.95,17.79,5.43,25.73,3.25,69.48-19.11,138.48-39.99,208.09-58.58,14.44-3.85,31.71-3.63,46.19.27,66.73,17.96,132.8,38.43,199.51,56.47,9.05,2.45,24.83-.12,30.04-6.48,33.39-40.72,64.7-83.15,101.24-130.95M334.41,902.91c-1.63,2.92-3.26,5.83-4.89,8.75,53.48,27.13,106.84,54.49,160.61,81.01,5.21,2.57,14,2.12,19.36-.51,53.77-26.4,107.17-53.54,160.66-80.47-56.8-23.92-109.65-40.7-162.7-56.83-5.88-1.79-13.33-1.23-19.33.58-51.32,15.52-102.5,31.58-153.71,47.47"/>
        <g class="cls-3">
          <rect class="cls-2" x="-39.79" y="8.39" width="1078.07" height="969.3" transform="translate(-177.36 678.88) rotate(-60)"/>
        </g>
      </g>
    </g>
  </g>
</svg>